<svg version="1.1" id="Layer_1" xmlns="http://www.w3.org/2000/svg" xmlns:xlink="http://www.w3.org/1999/xlink" x="0px" y="0px"
	 width="100%" viewBox="0 0 1507 748" enable-background="new 0 0 1507 748" xml:space="preserve">
<path fill="#FEFFFF" opacity="1.000000" stroke="none" 
	d="
M1037.000000,749.000000 
	C691.371521,749.000000 346.243073,749.000000 1.057308,749.000000 
	C1.057308,499.732483 1.057308,250.464951 1.057308,1.098704 
	C503.211884,1.098704 1005.423828,1.098704 1507.817871,1.098704 
	C1507.817871,250.333221 1507.817871,499.666595 1507.817871,749.000000 
	C1351.131348,749.000000 1194.315674,749.000000 1037.000000,749.000000 
M1076.729370,611.500000 
	C1076.896240,637.831360 1076.930298,664.164734 1077.331177,690.492554 
	C1077.421387,696.418823 1077.554565,702.854187 1079.813477,708.138000 
	C1085.599731,721.672119 1095.364014,731.956482 1109.913818,736.122559 
	C1116.364868,737.969604 1123.347168,738.667969 1130.090698,738.680115 
	C1236.418579,738.871826 1342.746948,738.822876 1449.074829,739.010742 
	C1455.782837,739.022583 1461.889160,737.621826 1467.894409,735.029358 
	C1493.687134,723.894592 1505.283325,693.858826 1493.158325,668.561157 
	C1484.333984,650.150391 1469.005493,640.776611 1448.878052,640.333069 
	C1421.057861,639.720032 1393.218506,639.945251 1365.387085,639.892395 
	C1323.056152,639.812012 1280.722534,639.497620 1238.395020,639.861267 
	C1207.192749,640.129272 1188.425781,615.482666 1188.194336,596.113892 
	C1187.704712,555.130859 1187.759766,514.133545 1188.238525,473.149689 
	C1188.512817,449.662781 1212.709595,428.923981 1235.469116,428.903198 
	C1296.462891,428.847565 1357.456421,428.465607 1418.449463,428.116241 
	C1421.378784,428.099487 1424.446899,427.558960 1427.206787,426.577545 
	C1451.051147,418.098724 1464.451294,395.673523 1460.809937,370.630646 
	C1457.800659,349.933655 1438.042847,331.870117 1417.250122,330.890411 
	C1409.763550,330.537689 1402.269287,330.172180 1394.777222,330.143799 
	C1362.279053,330.020752 1329.780273,330.096222 1297.282349,329.948120 
	C1275.624146,329.849426 1253.967407,329.441711 1232.309326,329.271667 
	C1212.876221,329.119080 1187.859009,308.968231 1188.019043,283.293030 
	C1188.263062,244.139130 1188.020874,204.982330 1188.190674,165.827667 
	C1188.209839,161.411789 1188.914673,156.772385 1190.396240,152.628006 
	C1197.292236,133.338684 1215.242920,120.498268 1235.742676,120.255455 
	C1272.734497,119.817322 1309.729126,119.573280 1346.723267,119.381897 
	C1382.554077,119.196533 1418.385742,119.181381 1454.217041,119.081558 
	C1455.713867,119.077393 1457.282227,119.246292 1458.696533,118.875046 
	C1488.215942,111.126915 1503.329712,84.345329 1496.209961,57.387077 
	C1490.242920,34.793259 1472.013062,21.243855 1447.152344,21.218891 
	C1339.491455,21.110785 1231.830078,21.208981 1124.168945,21.284266 
	C1108.219360,21.295418 1095.528320,28.222315 1086.083008,40.789982 
	C1080.980103,47.579807 1076.884766,54.982029 1076.883667,64.025124 
	C1076.863281,246.183411 1076.789551,428.341705 1076.729370,611.500000 
M479.779938,641.455444 
	C469.796967,641.038940 459.815704,640.309021 449.830780,640.255859 
	C375.509674,639.860168 301.187988,639.512756 226.866165,639.432983 
	C219.736694,639.425293 213.838089,637.281738 208.318695,633.402588 
	C193.271729,622.827332 189.149368,603.456238 198.933746,587.946167 
	C229.770264,539.064636 260.693604,490.237457 291.706696,441.467712 
	C364.995361,326.217438 438.398376,211.039902 511.630920,95.754059 
	C520.668396,81.526840 521.652588,65.815407 514.742737,50.793175 
	C506.118866,32.044895 491.481812,21.046053 469.701691,21.090202 
	C406.875610,21.217556 344.049011,21.042274 281.222595,21.052280 
	C218.896408,21.062204 156.569901,21.066149 94.244438,21.308752 
	C85.632484,21.342274 76.371445,20.951996 68.540024,23.830198 
	C45.532692,32.285843 27.458036,59.461277 40.072124,88.828575 
	C48.201691,107.755295 62.753365,118.660294 83.870155,118.847183 
	C131.192429,119.266022 178.517609,119.348816 225.841461,119.598747 
	C251.498993,119.734245 277.158813,119.781250 302.811279,120.230637 
	C307.848907,120.318893 313.332947,121.081932 317.796234,123.228271 
	C336.155945,132.057312 342.573364,154.464783 331.735474,171.656403 
	C292.030762,234.637878 252.216904,297.550842 212.323288,360.412872 
	C150.204163,458.296570 87.974762,556.110291 25.838243,653.982971 
	C22.007887,660.016235 17.655296,665.949402 15.121800,672.535400 
	C2.710363,704.799744 26.477650,738.600525 61.831451,738.648132 
	C197.315643,738.830566 332.800232,738.786987 468.284576,738.693420 
	C494.028351,738.675598 513.720032,721.322754 517.664062,695.933594 
	C521.371948,672.064514 503.736511,646.215698 479.779938,641.455444 
M742.741455,452.500000 
	C742.812378,531.157837 742.852844,609.815796 743.041504,688.473389 
	C743.051208,692.533264 743.776733,696.780151 745.101318,700.618225 
	C755.518616,730.802979 787.578430,745.893311 817.486633,735.138123 
	C835.769165,728.563660 852.944214,707.651550 852.925598,685.272095 
	C852.867859,615.782898 853.376526,546.293274 853.597351,476.803589 
	C853.729797,435.141632 853.644287,393.478882 853.818970,351.817169 
	C854.085876,288.161774 854.472839,224.506836 854.905884,160.852356 
	C854.925720,157.935471 855.345764,154.781921 856.509949,152.150253 
	C865.454834,131.930283 880.303528,120.224831 903.194702,120.044830 
	C932.520935,119.814224 961.846558,119.421104 991.169128,118.906456 
	C995.772522,118.825653 1000.669189,118.557503 1004.897766,116.963387 
	C1022.852905,110.194588 1035.161621,97.798683 1037.680542,78.303253 
	C1040.594604,55.749332 1032.819580,37.788429 1011.997131,26.529879 
	C1003.762512,22.077469 995.047668,21.138699 985.921631,21.142456 
	C858.768677,21.194815 731.615662,21.221779 604.463074,21.011484 
	C595.872253,20.997274 588.362061,23.262091 581.326782,27.534472 
	C560.622009,40.108086 553.376343,60.156651 558.177612,82.406891 
	C562.477051,102.331863 583.506409,119.645439 605.339844,119.199615 
	C634.647461,118.601181 663.988159,119.851357 693.313171,119.769997 
	C704.438904,119.739128 713.923889,123.451546 722.435303,129.843155 
	C736.389221,140.321732 741.810608,154.691360 741.830261,172.039444 
	C741.935913,265.193207 742.399231,358.346527 742.741455,452.500000 
z"/>
<path fill="#01BFFD" opacity="1.000000" stroke="none" 
	d="
M1076.728027,611.000000 
	C1076.789551,428.341705 1076.863281,246.183411 1076.883667,64.025124 
	C1076.884766,54.982029 1080.980103,47.579807 1086.083008,40.789982 
	C1095.528320,28.222315 1108.219360,21.295418 1124.168945,21.284266 
	C1231.830078,21.208981 1339.491455,21.110785 1447.152344,21.218891 
	C1472.013062,21.243855 1490.242920,34.793259 1496.209961,57.387077 
	C1503.329712,84.345329 1488.215942,111.126915 1458.696533,118.875046 
	C1457.282227,119.246292 1455.713867,119.077393 1454.217041,119.081558 
	C1418.385742,119.181381 1382.554077,119.196533 1346.723267,119.381897 
	C1309.729126,119.573280 1272.734497,119.817322 1235.742676,120.255455 
	C1215.242920,120.498268 1197.292236,133.338684 1190.396240,152.628006 
	C1188.914673,156.772385 1188.209839,161.411789 1188.190674,165.827667 
	C1188.020874,204.982330 1188.263062,244.139130 1188.019043,283.293030 
	C1187.859009,308.968231 1212.876221,329.119080 1232.309326,329.271667 
	C1253.967407,329.441711 1275.624146,329.849426 1297.282349,329.948120 
	C1329.780273,330.096222 1362.279053,330.020752 1394.777222,330.143799 
	C1402.269287,330.172180 1409.763550,330.537689 1417.250122,330.890411 
	C1438.042847,331.870117 1457.800659,349.933655 1460.809937,370.630646 
	C1464.451294,395.673523 1451.051147,418.098724 1427.206787,426.577545 
	C1424.446899,427.558960 1421.378784,428.099487 1418.449463,428.116241 
	C1357.456421,428.465607 1296.462891,428.847565 1235.469116,428.903198 
	C1212.709595,428.923981 1188.512817,449.662781 1188.238525,473.149689 
	C1187.759766,514.133545 1187.704712,555.130859 1188.194336,596.113892 
	C1188.425781,615.482666 1207.192749,640.129272 1238.395020,639.861267 
	C1280.722534,639.497620 1323.056152,639.812012 1365.387085,639.892395 
	C1393.218506,639.945251 1421.057861,639.720032 1448.878052,640.333069 
	C1469.005493,640.776611 1484.333984,650.150391 1493.158325,668.561157 
	C1505.283325,693.858826 1493.687134,723.894592 1467.894409,735.029358 
	C1461.889160,737.621826 1455.782837,739.022583 1449.074829,739.010742 
	C1342.746948,738.822876 1236.418579,738.871826 1130.090698,738.680115 
	C1123.347168,738.667969 1116.364868,737.969604 1109.913818,736.122559 
	C1095.364014,731.956482 1085.599731,721.672119 1079.813477,708.138000 
	C1077.554565,702.854187 1077.421387,696.418823 1077.331177,690.492554 
	C1076.930298,664.164734 1076.896240,637.831360 1076.728027,611.000000 
z"/>
<path fill="#01BFFD" opacity="1.000000" stroke="none" 
	d="
M480.203064,641.550720 
	C503.736511,646.215698 521.371948,672.064514 517.664062,695.933594 
	C513.720032,721.322754 494.028351,738.675598 468.284576,738.693420 
	C332.800232,738.786987 197.315643,738.830566 61.831451,738.648132 
	C26.477650,738.600525 2.710363,704.799744 15.121800,672.535400 
	C17.655296,665.949402 22.007887,660.016235 25.838243,653.982971 
	C87.974762,556.110291 150.204163,458.296570 212.323288,360.412872 
	C252.216904,297.550842 292.030762,234.637878 331.735474,171.656403 
	C342.573364,154.464783 336.155945,132.057312 317.796234,123.228271 
	C313.332947,121.081932 307.848907,120.318893 302.811279,120.230637 
	C277.158813,119.781250 251.498993,119.734245 225.841461,119.598747 
	C178.517609,119.348816 131.192429,119.266022 83.870155,118.847183 
	C62.753365,118.660294 48.201691,107.755295 40.072124,88.828575 
	C27.458036,59.461277 45.532692,32.285843 68.540024,23.830198 
	C76.371445,20.951996 85.632484,21.342274 94.244438,21.308752 
	C156.569901,21.066149 218.896408,21.062204 281.222595,21.052280 
	C344.049011,21.042274 406.875610,21.217556 469.701691,21.090202 
	C491.481812,21.046053 506.118866,32.044895 514.742737,50.793175 
	C521.652588,65.815407 520.668396,81.526840 511.630920,95.754059 
	C438.398376,211.039902 364.995361,326.217438 291.706696,441.467712 
	C260.693604,490.237457 229.770264,539.064636 198.933746,587.946167 
	C189.149368,603.456238 193.271729,622.827332 208.318695,633.402588 
	C213.838089,637.281738 219.736694,639.425293 226.866165,639.432983 
	C301.187988,639.512756 375.509674,639.860168 449.830780,640.255859 
	C459.815704,640.309021 469.796967,641.038940 480.203064,641.550720 
z"/>
<path fill="#01BFFD" opacity="1.000000" stroke="none" 
	d="
M742.740234,452.000000 
	C742.399231,358.346527 741.935913,265.193207 741.830261,172.039444 
	C741.810608,154.691360 736.389221,140.321732 722.435303,129.843155 
	C713.923889,123.451546 704.438904,119.739128 693.313171,119.769997 
	C663.988159,119.851357 634.647461,118.601181 605.339844,119.199615 
	C583.506409,119.645439 562.477051,102.331863 558.177612,82.406891 
	C553.376343,60.156651 560.622009,40.108086 581.326782,27.534472 
	C588.362061,23.262091 595.872253,20.997274 604.463074,21.011484 
	C731.615662,21.221779 858.768677,21.194815 985.921631,21.142456 
	C995.047668,21.138699 1003.762512,22.077469 1011.997131,26.529879 
	C1032.819580,37.788429 1040.594604,55.749332 1037.680542,78.303253 
	C1035.161621,97.798683 1022.852905,110.194588 1004.897766,116.963387 
	C1000.669189,118.557503 995.772522,118.825653 991.169128,118.906456 
	C961.846558,119.421104 932.520935,119.814224 903.194702,120.044830 
	C880.303528,120.224831 865.454834,131.930283 856.509949,152.150253 
	C855.345764,154.781921 854.925720,157.935471 854.905884,160.852356 
	C854.472839,224.506836 854.085876,288.161774 853.818970,351.817169 
	C853.644287,393.478882 853.729797,435.141632 853.597351,476.803589 
	C853.376526,546.293274 852.867859,615.782898 852.925598,685.272095 
	C852.944214,707.651550 835.769165,728.563660 817.486633,735.138123 
	C787.578430,745.893311 755.518616,730.802979 745.101318,700.618225 
	C743.776733,696.780151 743.051208,692.533264 743.041504,688.473389 
	C742.852844,609.815796 742.812378,531.157837 742.740234,452.000000 
z"/>
</svg>